Coordinates
version=1
nRows=10
nColumns=34
inDegrees=yes

Units are S.I. units (second, meters, Newtons, ...)
If the header above contains a line with 'inDegrees', this indicates whether rotational values are in degrees (yes) or radians (no).

endheader
time	pelvis_tilt	pelvis_list	pelvis_rotation	pelvis_tx	pelvis_ty	pelvis_tz	hip_flexion_l	hip_adduction_l	hip_rotation_l	hip_flexion_r	hip_adduction_r	hip_rotation_r	knee_angle_l_beta	knee_angle_r_beta	knee_angle_l	knee_angle_r	ankle_angle_l	ankle_angle_r	subtalar_angle_l	subtalar_angle_r	mtp_angle_l	mtp_angle_r	lumbar_ext	lumbar_bend	lumbar_rota	shoulder_flexion_r	shoulder_adduction_r	shoulder_rotation_r	elbow_flexion_r	shoulder_flexion_l	shoulder_adduction_l	shoulder_rotation_l	elbow_flexion_l
      0.43000000	     28.11900826	      0.59156417	      5.03221392	      0.36745734	      0.91264472	     -0.21611535	     -5.41085040	     -0.44836868	     -0.91987578	    -40.24153731	      6.29354374	     -4.88498294	      0.40409864	     -0.01239415	    -23.15314667	      0.71013277	      2.23934974	      7.35197686	     -5.79039807	     -3.68841169	     -1.71387666	     -9.85569513	    -49.57081988	      1.35121974	      2.59315714	      6.47094763	     -4.78000330	    -13.32970191	     45.58866005	     -0.45484739	     -1.64279674	     -9.58479435	     35.00801998
      0.44000000	     28.27446236	      0.77688640	      4.99791554	      0.37835516	      0.91146930	     -0.21630720	     -5.86767626	     -0.08461235	     -0.74244137	    -41.37415477	      6.20684082	     -5.26222846	      0.33849723	     -0.01814744	    -19.39446281	      1.03977165	      1.96077633	      7.54149842	     -5.15657803	     -3.29437816	     -1.48269785	     -9.65083120	    -49.74819970	      1.13236958	      2.59539374	      6.76572236	     -4.83630542	    -13.10379340	     46.10356804	     -0.89128405	     -1.60688706	    -10.00238394	     34.71410728
      0.45000000	     28.41251308	      0.89199932	      4.95517758	      0.38937456	      0.91020505	     -0.21661327	     -6.37189133	      0.20369855	     -0.54383306	    -42.41518782	      6.15181089	     -5.64921155	      0.27562980	     -0.02130294	    -15.79242451	      1.22056860	      1.51917568	      7.76613060	     -4.69870523	     -2.72039626	     -1.26081574	     -9.37101472	    -49.88648832	      0.96453088	      2.65584806	      7.05051236	     -4.90676567	    -12.87310462	     46.55159927	     -1.33671997	     -1.55670771	    -10.39176226	     34.40753014
      0.46000000	     28.54605402	      0.90932663	      4.94784711	      0.40045408	      0.90885239	     -0.21707914	     -6.88431288	      0.38487877	     -0.32435040	    -43.38085329	      6.18265514	     -6.01280241	      0.21753248	     -0.02190762	    -12.46369290	      1.25521408	      0.98285283	      8.01968237	     -4.39001181	     -2.15841716	     -1.17318353	     -9.11314736	    -49.99616702	      0.91457162	      2.73096491	      7.33163308	     -4.96588277	    -12.65235200	     46.98441624	     -1.74404203	     -1.50410762	    -10.72644576	     33.96659097
      0.47000000	     28.45527817	      0.69207771	      5.10295672	      0.41135624	      0.90712554	     -0.21788501	     -7.01254918	      0.31800950	      0.25040872	    -43.93680138	      6.46923756	     -6.15393654	      0.16929135	     -0.01777978	     -9.69967960	      1.01870652	      0.70026810	      8.25030640	     -3.97915147	     -1.99271378	     -1.27385631	     -9.01155249	    -49.89096167	      1.14528045	      2.92236979	      7.61099345	     -5.05379700	    -12.48324308	     47.32341505	     -2.05855800	     -1.42967555	    -10.96151142	     33.45579642
      0.48000000	     28.79799969	      0.84630869	      4.91243132	      0.42300901	      0.90606670	     -0.21835251	     -7.90720675	      0.65310227	      0.10168626	    -45.11846968	      6.22590254	     -6.83422238	      0.12110602	     -0.01602071	     -6.93886373	      0.91791933	     -0.29944284	      8.67226801	     -4.29411057	     -0.50650757	     -1.33506607	     -8.65413451	    -50.14412550	      0.89420312	      2.92380585	      7.84582579	     -5.06634406	    -12.25191358	     47.71949994	     -2.53674198	     -1.40001643	    -11.25147271	     32.99667984
      0.49000000	     28.99341813	      0.77767162	      4.79706558	      0.43449911	      0.90485100	     -0.21897131	     -8.48617591	      0.75008180	      0.07083886	    -45.97767475	      6.17726258	     -6.94499396	      0.08484340	     -0.00958259	     -4.86116886	      0.54904221	     -0.98191187	      8.82405297	     -4.33968045	      0.02721580	     -1.55551400	     -8.57869465	    -50.25357066	      0.85424769	      3.09986584	      8.05147450	     -5.10774481	    -12.05425738	     48.06461441	     -2.88496867	     -1.35303623	    -11.40070473	     32.38200724
      0.50000000	     29.11189368	      0.80340463	      4.72735038	      0.44607001	      0.90356799	     -0.21991467	     -8.90379510	      0.97360273	      0.22457556	    -46.69235138	      6.03117302	     -7.37169728	      0.05917327	     -0.00054285	     -3.39037869	      0.03110286	     -1.55207265	      9.17861189	     -4.62841672	      1.02145628	     -1.81976313	     -8.56199665	    -50.30561999	      0.79461974	      3.16640002	      8.23534364	     -5.12740287	    -11.96779728	     48.36473410	     -3.24086556	     -1.31909432	    -11.48937784	     31.86836991
      0.51000000	     29.15043874	      0.74322307	      4.69654364	      0.45763748	      0.90229182	     -0.22090003	     -9.10988014	      1.08838890	      0.32915880	    -47.20545781	      5.96229923	     -7.42956990	      0.04516552	      0.01196625	     -2.58779360	     -0.68561550	     -1.77825343	      9.14492761	     -4.61811060	      1.22854592	     -1.91147916	     -8.53398771	    -50.28518656	      0.80912419	      3.23487051	      8.41877367	     -5.12314486	    -11.85280656	     48.62408738	     -3.55096724	     -1.28018914	    -11.58415032	     31.29474669
      0.52000000	     29.29200743	      0.80712349	      4.54472206	      0.46934584	      0.90132564	     -0.22185241	     -9.40342623	      1.35672443	      0.28094094	    -47.77566875	      5.67557318	     -7.47866063	      0.04022798	      0.02695844	     -2.30489363	     -1.54460490	     -2.12712789	      9.04255779	     -4.78565488	      1.61067451	     -1.99091562	     -8.50083124	    -50.36662102	      0.67298842	      3.28794380	      8.55403120	     -5.10459115	    -11.75794593	     48.87338950	     -3.84371648	     -1.27283963	    -11.64747060	     30.72033248
